<svg width="14" height="16" viewBox="0 0 14 16" fill="none" xmlns="http://www.w3.org/2000/svg">
    <g id="Paper">
        <path id="Paper_2" fill-rule="evenodd" clip-rule="evenodd"
            d="M4.69434 11.2925H8.73394C9.0384 11.2925 9.29087 11.0375 9.29087 10.73C9.29087 10.4225 9.0384 10.175 8.73394 10.175H4.69434C4.38988 10.175 4.13741 10.4225 4.13741 10.73C4.13741 11.0375 4.38988 11.2925 4.69434 11.2925ZM7.20424 6.425H4.69434C4.38988 6.425 4.13741 6.68 4.13741 6.9875C4.13741 7.295 4.38988 7.5425 4.69434 7.5425H7.20424C7.5087 7.5425 7.76117 7.295 7.76117 6.9875C7.76117 6.68 7.5087 6.425 7.20424 6.425ZM12.5036 5.76921C12.6781 5.76719 12.8682 5.765 13.0409 5.765C13.2265 5.765 13.375 5.915 13.375 6.1025V12.1325C13.375 13.9925 11.8825 15.5 10.0409 15.5H4.12998C2.19929 15.5 0.625031 13.9175 0.625031 11.9675V3.8825C0.625031 2.0225 2.12503 0.5 3.97404 0.5H7.93939C8.13246 0.5 8.28097 0.6575 8.28097 0.845V3.26C8.28097 4.6325 9.40226 5.7575 10.7612 5.765C11.0786 5.765 11.3584 5.76737 11.6033 5.76945C11.7938 5.77106 11.9632 5.7725 12.1127 5.7725C12.2184 5.7725 12.3554 5.77092 12.5036 5.76921ZM12.7083 4.6745C12.0979 4.67675 11.3784 4.6745 10.8608 4.66925C10.0395 4.66925 9.36305 3.986 9.36305 3.1565V1.1795C9.36305 0.85625 9.75142 0.69575 9.97345 0.929C10.3753 1.35106 10.9276 1.93122 11.4774 2.50872C12.0257 3.08471 12.5715 3.65804 12.963 4.06925C13.1799 4.2965 13.021 4.67375 12.7083 4.6745Z"
            fill="#00A795" />
    </g>
</svg>
