<svg width="20" height="20" viewBox="0 0 20 20" fill="none" xmlns="http://www.w3.org/2000/svg">
<g id="Tick Square">
<path id="Tick Square_2" fill-rule="evenodd" clip-rule="evenodd" d="M14.3344 0H5.66537C2.26779 0 0.000366211 2.4326 0.000366211 5.916V14.084C0.000366211 17.5707 2.26174 20 5.66537 20H14.3334C17.738 20 20.0004 17.5707 20.0004 14.084V5.916C20.0004 2.4295 17.7381 0 14.3344 0ZM5.66537 1.5H14.3344C16.8849 1.5 18.5004 3.23496 18.5004 5.916V14.084C18.5004 16.7652 16.8847 18.5 14.3334 18.5H5.66537C3.11513 18.5 1.50037 16.7653 1.50037 14.084V5.916C1.50037 3.23837 3.12071 1.5 5.66537 1.5ZM14.0902 7.09667C13.7973 6.80378 13.3224 6.80378 13.0295 7.09667L8.81297 11.3118L6.97008 9.46956L6.88595 9.39696C6.59229 9.17916 6.17563 9.20346 5.90942 9.46978C5.61659 9.76274 5.61669 10.2376 5.90965 10.5304L8.28365 12.9034L8.36777 12.976C8.66138 13.1938 9.07797 13.1696 9.3442 12.9033L14.0902 8.15733L14.1628 8.07321C14.3807 7.7796 14.3565 7.36294 14.0902 7.09667Z" fill="#A6A6A6"/>
</g>
</svg>
